# Blender 3.1.0
# www.blender.org
mtllib pool_ball_2.mtl
o Ball
v 0.000000 0.019961 -0.019961
v 0.000000 0.010803 -0.026081
v 0.000000 -0.010803 -0.026081
v 0.000000 -0.026081 -0.010803
v 0.004134 0.026081 -0.009981
v 0.007639 0.019961 -0.018442
v 0.009981 0.010803 -0.024096
v 0.010803 -0.000000 -0.026081
v 0.009981 -0.010803 -0.024096
v 0.007639 -0.019961 -0.018442
v 0.004134 -0.026081 -0.009981
v 0.007639 0.026081 -0.007639
v 0.014115 0.019961 -0.014115
v 0.018442 0.010803 -0.018442
v 0.019961 -0.000000 -0.019961
v 0.018442 -0.010803 -0.018442
v 0.014115 -0.019961 -0.014115
v 0.007639 -0.026081 -0.007639
v 0.009981 0.026081 -0.004134
v 0.018442 0.019961 -0.007639
v 0.024096 0.010803 -0.009981
v 0.026081 -0.000000 -0.010803
v 0.024096 -0.010803 -0.009981
v 0.018442 -0.019961 -0.007639
v 0.009981 -0.026081 -0.004134
v 0.010803 0.026081 0.000000
v 0.019961 0.019961 0.000000
v 0.026081 0.010803 0.000000
v 0.028230 -0.000000 0.000000
v 0.026081 -0.010803 0.000000
v 0.019961 -0.019961 0.000000
v 0.010803 -0.026081 0.000000
v 0.009981 0.026081 0.004134
v 0.018442 0.019961 0.007639
v 0.024096 0.010803 0.009981
v 0.026081 -0.000000 0.010803
v 0.024096 -0.010803 0.009981
v 0.018442 -0.019961 0.007639
v 0.009981 -0.026081 0.004134
v 0.007639 0.026081 0.007639
v 0.014115 0.019961 0.014115
v 0.018442 0.010803 0.018442
v 0.019961 -0.000000 0.019962
v 0.018442 -0.010803 0.018442
v 0.014115 -0.019961 0.014115
v 0.007639 -0.026081 0.007639
v 0.004134 0.026081 0.009981
v 0.007639 0.019961 0.018442
v 0.009981 0.010803 0.024096
v 0.010803 -0.000000 0.026081
v 0.009981 -0.010803 0.024096
v 0.007639 -0.019961 0.018442
v 0.004134 -0.026081 0.009981
v -0.000000 0.028230 0.000000
v -0.000000 0.026081 0.010803
v -0.000000 0.019961 0.019961
v -0.000000 0.010803 0.026081
v -0.000000 -0.000000 0.028230
v -0.000000 -0.010803 0.026081
v -0.000000 -0.019961 0.019961
v -0.000000 -0.026081 0.010803
v -0.004134 0.026081 0.009981
v -0.007639 0.019961 0.018442
v -0.009981 0.010803 0.024096
v -0.010803 -0.000000 0.026081
v -0.009981 -0.010803 0.024096
v -0.007639 -0.019961 0.018442
v -0.004134 -0.026081 0.009981
v -0.007639 0.026081 0.007639
v -0.014115 0.019961 0.014115
v -0.018442 0.010803 0.018442
v -0.019962 -0.000000 0.019961
v -0.018442 -0.010803 0.018442
v -0.014115 -0.019961 0.014115
v -0.007639 -0.026081 0.007639
v 0.000000 -0.028230 0.000000
v -0.009981 0.026081 0.004134
v -0.018442 0.019961 0.007639
v -0.024096 0.010803 0.009981
v -0.026081 -0.000000 0.010803
v -0.024096 -0.010803 0.009981
v -0.018442 -0.019961 0.007639
v -0.009981 -0.026081 0.004134
v -0.010803 0.026081 -0.000000
v -0.019961 0.019961 -0.000000
v -0.026081 0.010803 -0.000000
v -0.028230 -0.000000 -0.000000
v -0.026081 -0.010803 -0.000000
v -0.019961 -0.019961 -0.000000
v -0.010803 -0.026081 -0.000000
v -0.009981 0.026081 -0.004134
v -0.018442 0.019961 -0.007639
v -0.024096 0.010803 -0.009981
v -0.026081 -0.000000 -0.010803
v -0.024096 -0.010803 -0.009981
v -0.018442 -0.019961 -0.007639
v -0.009981 -0.026081 -0.004134
v -0.007639 0.026081 -0.007639
v -0.014115 0.019961 -0.014115
v -0.018442 0.010803 -0.018442
v -0.019961 -0.000000 -0.019962
v -0.018442 -0.010803 -0.018442
v -0.014115 -0.019961 -0.014115
v -0.007639 -0.026081 -0.007639
v -0.004134 0.026081 -0.009981
v -0.007639 0.019961 -0.018442
v -0.009981 0.010803 -0.024096
v -0.010803 -0.000000 -0.026081
v -0.009981 -0.010803 -0.024096
v -0.007639 -0.019961 -0.018442
v -0.004134 -0.026081 -0.009981
v 0.000000 0.026081 -0.010803
v 0.000000 -0.000000 -0.028230
v 0.000000 -0.019961 -0.019961
vn -0.0000 -0.0000 -0.0282
vn 0.0100 0.0106 -0.0242
vn 0.0108 -0.0000 -0.0261
vn -0.0000 0.0196 -0.0203
vn 0.0044 0.0258 -0.0105
vn 0.0078 0.0196 -0.0187
vn -0.0000 -0.0258 -0.0114
vn 0.0078 -0.0196 -0.0187
vn 0.0044 -0.0258 -0.0105
vn -0.0000 -0.0106 -0.0262
vn 0.0100 -0.0106 -0.0242
vn -0.0000 0.0106 -0.0262
vn -0.0000 0.0258 -0.0114
vn -0.0000 0.0282 -0.0000
vn -0.0000 -0.0282 -0.0000
vn -0.0000 -0.0196 -0.0203
vn 0.0143 -0.0196 -0.0143
vn 0.0080 -0.0258 -0.0080
vn 0.0200 -0.0000 -0.0200
vn 0.0185 -0.0106 -0.0185
vn 0.0143 0.0196 -0.0143
vn 0.0185 0.0106 -0.0185
vn 0.0080 0.0258 -0.0080
vn 0.0105 0.0258 -0.0044
vn 0.0105 -0.0258 -0.0044
vn 0.0242 -0.0106 -0.0100
vn 0.0187 -0.0196 -0.0078
vn 0.0242 0.0106 -0.0100
vn 0.0261 -0.0000 -0.0108
vn 0.0187 0.0196 -0.0078
vn 0.0262 -0.0106 -0.0000
vn 0.0203 -0.0196 -0.0000
vn 0.0262 0.0106 -0.0000
vn 0.0282 -0.0000 -0.0000
vn 0.0114 0.0258 -0.0000
vn 0.0203 0.0196 -0.0000
vn 0.0114 -0.0258 -0.0000
vn 0.0187 -0.0196 0.0078
vn 0.0105 -0.0258 0.0044
vn 0.0261 -0.0000 0.0108
vn 0.0242 -0.0106 0.0100
vn 0.0187 0.0196 0.0078
vn 0.0242 0.0106 0.0100
vn 0.0105 0.0258 0.0044
vn 0.0200 -0.0000 0.0200
vn 0.0185 -0.0106 0.0185
vn 0.0143 0.0196 0.0143
vn 0.0185 0.0106 0.0185
vn 0.0080 0.0258 0.0080
vn 0.0080 -0.0258 0.0080
vn 0.0143 -0.0196 0.0143
vn 0.0044 -0.0258 0.0105
vn 0.0100 -0.0106 0.0242
vn 0.0078 -0.0196 0.0187
vn 0.0100 0.0106 0.0242
vn 0.0108 -0.0000 0.0261
vn 0.0044 0.0258 0.0105
vn 0.0078 0.0196 0.0187
vn -0.0000 0.0106 0.0262
vn -0.0000 -0.0000 0.0282
vn -0.0000 0.0258 0.0114
vn -0.0000 0.0196 0.0203
vn -0.0000 -0.0196 0.0203
vn -0.0000 -0.0258 0.0114
vn -0.0000 -0.0106 0.0262
vn -0.0078 -0.0196 0.0187
vn -0.0044 -0.0258 0.0105
vn -0.0108 -0.0000 0.0261
vn -0.0100 -0.0106 0.0242
vn -0.0078 0.0196 0.0187
vn -0.0100 0.0106 0.0242
vn -0.0044 0.0258 0.0105
vn -0.0143 0.0196 0.0143
vn -0.0185 0.0106 0.0185
vn -0.0080 0.0258 0.0080
vn -0.0080 -0.0258 0.0080
vn -0.0185 -0.0106 0.0185
vn -0.0143 -0.0196 0.0143
vn -0.0200 -0.0000 0.0200
vn -0.0105 -0.0258 0.0044
vn -0.0242 -0.0106 0.0100
vn -0.0187 -0.0196 0.0078
vn -0.0242 0.0106 0.0100
vn -0.0261 -0.0000 0.0108
vn -0.0105 0.0258 0.0044
vn -0.0187 0.0196 0.0078
vn -0.0114 0.0258 -0.0000
vn -0.0203 0.0196 -0.0000
vn -0.0203 -0.0196 -0.0000
vn -0.0114 -0.0258 -0.0000
vn -0.0282 -0.0000 -0.0000
vn -0.0262 -0.0106 -0.0000
vn -0.0262 0.0106 -0.0000
vn -0.0187 -0.0196 -0.0078
vn -0.0105 -0.0258 -0.0044
vn -0.0261 -0.0000 -0.0108
vn -0.0242 -0.0106 -0.0100
vn -0.0187 0.0196 -0.0078
vn -0.0242 0.0106 -0.0100
vn -0.0105 0.0258 -0.0044
vn -0.0080 0.0258 -0.0080
vn -0.0080 -0.0258 -0.0080
vn -0.0185 -0.0106 -0.0185
vn -0.0143 -0.0196 -0.0143
vn -0.0185 0.0106 -0.0185
vn -0.0200 -0.0000 -0.0200
vn -0.0143 0.0196 -0.0143
vn -0.0100 -0.0106 -0.0242
vn -0.0078 -0.0196 -0.0187
vn -0.0100 0.0106 -0.0242
vn -0.0108 -0.0000 -0.0261
vn -0.0044 0.0258 -0.0105
vn -0.0078 0.0196 -0.0187
vn -0.0044 -0.0258 -0.0105
vt 0.750000 0.750000
vt 0.750000 0.625000
vt 0.750000 0.375000
vt 0.750000 0.125000
vt 0.687500 0.875000
vt 0.687500 0.750000
vt 0.687500 0.625000
vt 0.687500 0.500000
vt 0.687500 0.375000
vt 0.687500 0.250000
vt 0.687500 0.125000
vt 0.625000 0.875000
vt 0.625000 0.750000
vt 0.625000 0.625000
vt 0.625000 0.500000
vt 0.625000 0.375000
vt 0.625000 0.250000
vt 0.625000 0.125000
vt 0.562500 0.875000
vt 0.562500 0.750000
vt 0.562500 0.625000
vt 0.562500 0.500000
vt 0.562500 0.375000
vt 0.562500 0.250000
vt 0.562500 0.125000
vt 0.500000 0.875000
vt 0.500000 0.750000
vt 0.500000 0.625000
vt 0.500000 0.500000
vt 0.500000 0.375000
vt 0.500000 0.250000
vt 0.500000 0.125000
vt 0.437500 0.875000
vt 0.437500 0.750000
vt 0.437500 0.625000
vt 0.437500 0.500000
vt 0.437500 0.375000
vt 0.437500 0.250000
vt 0.437500 0.125000
vt 0.375000 0.875000
vt 0.375000 0.750000
vt 0.375000 0.625000
vt 0.375000 0.500000
vt 0.375000 0.375000
vt 0.375000 0.250000
vt 0.375000 0.125000
vt 0.312500 0.875000
vt 0.312500 0.750000
vt 0.312500 0.625000
vt 0.312500 0.500000
vt 0.312500 0.375000
vt 0.312500 0.250000
vt 0.312500 0.125000
vt 0.718750 1.000000
vt 0.656250 1.000000
vt 0.593750 1.000000
vt 0.531250 1.000000
vt 0.468750 1.000000
vt 0.406250 1.000000
vt 0.343750 1.000000
vt 0.281250 1.000000
vt 0.218750 1.000000
vt 0.156250 1.000000
vt 0.093750 1.000000
vt 0.031250 1.000000
vt 0.968750 1.000000
vt 0.906250 1.000000
vt 0.843750 1.000000
vt 0.781250 1.000000
vt 0.250000 0.875000
vt 0.250000 0.750000
vt 0.250000 0.625000
vt 0.250000 0.500000
vt 0.250000 0.375000
vt 0.250000 0.250000
vt 0.250000 0.125000
vt 0.187500 0.875000
vt 0.187500 0.750000
vt 0.187500 0.625000
vt 0.187500 0.500000
vt 0.187500 0.375000
vt 0.187500 0.250000
vt 0.187500 0.125000
vt 0.125000 0.875000
vt 0.125000 0.750000
vt 0.125000 0.625000
vt 0.125000 0.500000
vt 0.125000 0.375000
vt 0.125000 0.250000
vt 0.125000 0.125000
vt 0.718750 0.000000
vt 0.656250 0.000000
vt 0.593750 0.000000
vt 0.531250 0.000000
vt 0.468750 0.000000
vt 0.406250 0.000000
vt 0.343750 0.000000
vt 0.281250 0.000000
vt 0.218750 0.000000
vt 0.156250 0.000000
vt 0.093750 0.000000
vt 0.031250 0.000000
vt 0.968750 0.000000
vt 0.906250 0.000000
vt 0.843750 0.000000
vt 0.781250 0.000000
vt 0.062500 0.875000
vt 0.062500 0.750000
vt 0.062500 0.625000
vt 0.062500 0.500000
vt 0.062500 0.375000
vt 0.062500 0.250000
vt 0.062500 0.125000
vt 0.000000 0.875000
vt 1.000000 0.875000
vt 0.000000 0.750000
vt 1.000000 0.750000
vt 0.000000 0.625000
vt 1.000000 0.625000
vt 0.000000 0.500000
vt 1.000000 0.500000
vt 0.000000 0.375000
vt 1.000000 0.375000
vt 0.000000 0.250000
vt 1.000000 0.250000
vt 0.000000 0.125000
vt 1.000000 0.125000
vt 0.937500 0.875000
vt 0.937500 0.750000
vt 0.937500 0.625000
vt 0.937500 0.500000
vt 0.937500 0.375000
vt 0.937500 0.250000
vt 0.937500 0.125000
vt 0.875000 0.875000
vt 0.875000 0.750000
vt 0.875000 0.625000
vt 0.875000 0.500000
vt 0.875000 0.375000
vt 0.875000 0.250000
vt 0.875000 0.125000
vt 0.812500 0.875000
vt 0.812500 0.750000
vt 0.812500 0.625000
vt 0.812500 0.500000
vt 0.812500 0.375000
vt 0.812500 0.250000
vt 0.812500 0.125000
vt 0.750000 0.875000
vt 0.750000 0.500000
vt 0.750000 0.250000
s 1
usemtl Material.001
f 113/150/1 7/7/2 8/8/3
f 1/1/4 5/5/5 6/6/6
f 4/4/7 10/10/8 11/11/9
f 3/3/10 8/8/3 9/9/11
f 2/2/12 6/6/6 7/7/2
f 112/149/13 54/54/14 5/5/5
f 76/91/15 4/4/7 11/11/9
f 114/151/16 9/9/11 10/10/8
f 11/11/9 17/17/17 18/18/18
f 9/9/11 15/15/19 16/16/20
f 7/7/2 13/13/21 14/14/22
f 5/5/5 54/55/14 12/12/23
f 76/92/15 11/11/9 18/18/18
f 10/10/8 16/16/20 17/17/17
f 8/8/3 14/14/22 15/15/19
f 6/6/6 12/12/23 13/13/21
f 12/12/23 54/56/14 19/19/24
f 76/93/15 18/18/18 25/25/25
f 17/17/17 23/23/26 24/24/27
f 15/15/19 21/21/28 22/22/29
f 13/13/21 19/19/24 20/20/30
f 18/18/18 24/24/27 25/25/25
f 16/16/20 22/22/29 23/23/26
f 14/14/22 20/20/30 21/21/28
f 24/24/27 30/30/31 31/31/32
f 22/22/29 28/28/33 29/29/34
f 20/20/30 26/26/35 27/27/36
f 25/25/25 31/31/32 32/32/37
f 23/23/26 29/29/34 30/30/31
f 21/21/28 27/27/36 28/28/33
f 19/19/24 54/57/14 26/26/35
f 76/94/15 25/25/25 32/32/37
f 32/32/37 38/38/38 39/39/39
f 30/30/31 36/36/40 37/37/41
f 28/28/33 34/34/42 35/35/43
f 26/26/35 54/58/14 33/33/44
f 76/95/15 32/32/37 39/39/39
f 31/31/32 37/37/41 38/38/38
f 29/29/34 35/35/43 36/36/40
f 27/27/36 33/33/44 34/34/42
f 37/37/41 43/43/45 44/44/46
f 35/35/43 41/41/47 42/42/48
f 33/33/44 54/59/14 40/40/49
f 76/96/15 39/39/39 46/46/50
f 38/38/38 44/44/46 45/45/51
f 36/36/40 42/42/48 43/43/45
f 34/34/42 40/40/49 41/41/47
f 39/39/39 45/45/51 46/46/50
f 76/97/15 46/46/50 53/53/52
f 45/45/51 51/51/53 52/52/54
f 43/43/45 49/49/55 50/50/56
f 41/41/47 47/47/57 48/48/58
f 46/46/50 52/52/54 53/53/52
f 44/44/46 50/50/56 51/51/53
f 42/42/48 48/48/58 49/49/55
f 40/40/49 54/60/14 47/47/57
f 50/50/56 57/72/59 58/73/60
f 48/48/58 55/70/61 56/71/62
f 53/53/52 60/75/63 61/76/64
f 51/51/53 58/73/60 59/74/65
f 49/49/55 56/71/62 57/72/59
f 47/47/57 54/61/14 55/70/61
f 76/98/15 53/53/52 61/76/64
f 52/52/54 59/74/65 60/75/63
f 61/76/64 67/82/66 68/83/67
f 59/74/65 65/80/68 66/81/69
f 57/72/59 63/78/70 64/79/71
f 55/70/61 54/62/14 62/77/72
f 76/99/15 61/76/64 68/83/67
f 60/75/63 66/81/69 67/82/66
f 58/73/60 64/79/71 65/80/68
f 56/71/62 62/77/72 63/78/70
f 64/79/71 70/85/73 71/86/74
f 62/77/72 54/63/14 69/84/75
f 76/100/15 68/83/67 75/90/76
f 67/82/66 73/88/77 74/89/78
f 65/80/68 71/86/74 72/87/79
f 63/78/70 69/84/75 70/85/73
f 68/83/67 74/89/78 75/90/76
f 66/81/69 72/87/79 73/88/77
f 76/101/15 75/90/76 83/113/80
f 74/89/78 81/111/81 82/112/82
f 72/87/79 79/109/83 80/110/84
f 70/85/73 77/107/85 78/108/86
f 75/90/76 82/112/82 83/113/80
f 73/88/77 80/110/84 81/111/81
f 71/86/74 78/108/86 79/109/83
f 69/84/75 54/64/14 77/107/85
f 78/108/86 84/114/87 85/116/88
f 83/113/80 89/124/89 90/126/90
f 81/111/81 87/120/91 88/122/92
f 79/109/83 85/116/88 86/118/93
f 77/107/85 54/65/14 84/114/87
f 76/102/15 83/113/80 90/126/90
f 82/112/82 88/122/92 89/124/89
f 80/110/84 86/118/93 87/120/91
f 90/127/90 96/133/94 97/134/95
f 88/123/92 94/131/96 95/132/97
f 86/119/93 92/129/98 93/130/99
f 84/115/87 54/66/14 91/128/100
f 76/103/15 90/127/90 97/134/95
f 89/125/89 95/132/97 96/133/94
f 87/121/91 93/130/99 94/131/96
f 85/117/88 91/128/100 92/129/98
f 91/128/100 54/67/14 98/135/101
f 76/104/15 97/134/95 104/141/102
f 96/133/94 102/139/103 103/140/104
f 94/131/96 100/137/105 101/138/106
f 92/129/98 98/135/101 99/136/107
f 97/134/95 103/140/104 104/141/102
f 95/132/97 101/138/106 102/139/103
f 93/130/99 99/136/107 100/137/105
f 103/140/104 109/146/108 110/147/109
f 101/138/106 107/144/110 108/145/111
f 99/136/107 105/142/112 106/143/113
f 104/141/102 110/147/109 111/148/114
f 102/139/103 108/145/111 109/146/108
f 100/137/105 106/143/113 107/144/110
f 98/135/101 54/68/14 105/142/112
f 76/105/15 104/141/102 111/148/114
f 111/148/114 114/151/16 4/4/7
f 109/146/108 113/150/1 3/3/10
f 107/144/110 1/1/4 2/2/12
f 105/142/112 54/69/14 112/149/13
f 76/106/15 111/148/114 4/4/7
f 110/147/109 3/3/10 114/151/16
f 108/145/111 2/2/12 113/150/1
f 106/143/113 112/149/13 1/1/4
f 113/150/1 2/2/12 7/7/2
f 1/1/4 112/149/13 5/5/5
f 4/4/7 114/151/16 10/10/8
f 3/3/10 113/150/1 8/8/3
f 2/2/12 1/1/4 6/6/6
f 114/151/16 3/3/10 9/9/11
f 11/11/9 10/10/8 17/17/17
f 9/9/11 8/8/3 15/15/19
f 7/7/2 6/6/6 13/13/21
f 10/10/8 9/9/11 16/16/20
f 8/8/3 7/7/2 14/14/22
f 6/6/6 5/5/5 12/12/23
f 17/17/17 16/16/20 23/23/26
f 15/15/19 14/14/22 21/21/28
f 13/13/21 12/12/23 19/19/24
f 18/18/18 17/17/17 24/24/27
f 16/16/20 15/15/19 22/22/29
f 14/14/22 13/13/21 20/20/30
f 24/24/27 23/23/26 30/30/31
f 22/22/29 21/21/28 28/28/33
f 20/20/30 19/19/24 26/26/35
f 25/25/25 24/24/27 31/31/32
f 23/23/26 22/22/29 29/29/34
f 21/21/28 20/20/30 27/27/36
f 32/32/37 31/31/32 38/38/38
f 30/30/31 29/29/34 36/36/40
f 28/28/33 27/27/36 34/34/42
f 31/31/32 30/30/31 37/37/41
f 29/29/34 28/28/33 35/35/43
f 27/27/36 26/26/35 33/33/44
f 37/37/41 36/36/40 43/43/45
f 35/35/43 34/34/42 41/41/47
f 38/38/38 37/37/41 44/44/46
f 36/36/40 35/35/43 42/42/48
f 34/34/42 33/33/44 40/40/49
f 39/39/39 38/38/38 45/45/51
f 45/45/51 44/44/46 51/51/53
f 43/43/45 42/42/48 49/49/55
f 41/41/47 40/40/49 47/47/57
f 46/46/50 45/45/51 52/52/54
f 44/44/46 43/43/45 50/50/56
f 42/42/48 41/41/47 48/48/58
f 50/50/56 49/49/55 57/72/59
f 48/48/58 47/47/57 55/70/61
f 53/53/52 52/52/54 60/75/63
f 51/51/53 50/50/56 58/73/60
f 49/49/55 48/48/58 56/71/62
f 52/52/54 51/51/53 59/74/65
f 61/76/64 60/75/63 67/82/66
f 59/74/65 58/73/60 65/80/68
f 57/72/59 56/71/62 63/78/70
f 60/75/63 59/74/65 66/81/69
f 58/73/60 57/72/59 64/79/71
f 56/71/62 55/70/61 62/77/72
f 64/79/71 63/78/70 70/85/73
f 67/82/66 66/81/69 73/88/77
f 65/80/68 64/79/71 71/86/74
f 63/78/70 62/77/72 69/84/75
f 68/83/67 67/82/66 74/89/78
f 66/81/69 65/80/68 72/87/79
f 74/89/78 73/88/77 81/111/81
f 72/87/79 71/86/74 79/109/83
f 70/85/73 69/84/75 77/107/85
f 75/90/76 74/89/78 82/112/82
f 73/88/77 72/87/79 80/110/84
f 71/86/74 70/85/73 78/108/86
f 78/108/86 77/107/85 84/114/87
f 83/113/80 82/112/82 89/124/89
f 81/111/81 80/110/84 87/120/91
f 79/109/83 78/108/86 85/116/88
f 82/112/82 81/111/81 88/122/92
f 80/110/84 79/109/83 86/118/93
f 90/127/90 89/125/89 96/133/94
f 88/123/92 87/121/91 94/131/96
f 86/119/93 85/117/88 92/129/98
f 89/125/89 88/123/92 95/132/97
f 87/121/91 86/119/93 93/130/99
f 85/117/88 84/115/87 91/128/100
f 96/133/94 95/132/97 102/139/103
f 94/131/96 93/130/99 100/137/105
f 92/129/98 91/128/100 98/135/101
f 97/134/95 96/133/94 103/140/104
f 95/132/97 94/131/96 101/138/106
f 93/130/99 92/129/98 99/136/107
f 103/140/104 102/139/103 109/146/108
f 101/138/106 100/137/105 107/144/110
f 99/136/107 98/135/101 105/142/112
f 104/141/102 103/140/104 110/147/109
f 102/139/103 101/138/106 108/145/111
f 100/137/105 99/136/107 106/143/113
f 111/148/114 110/147/109 114/151/16
f 109/146/108 108/145/111 113/150/1
f 107/144/110 106/143/113 1/1/4
f 110/147/109 109/146/108 3/3/10
f 108/145/111 107/144/110 2/2/12
f 106/143/113 105/142/112 112/149/13
